<svg width="22" height="23" viewBox="0 0 22 23" fill="none" xmlns="http://www.w3.org/2000/svg">
<path d="M10.7715 21.5C16.2943 21.5 20.7715 17.0228 20.7715 11.5C20.7715 5.97715 16.2943 1.5 10.7715 1.5C5.24864 1.5 0.771484 5.97715 0.771484 11.5C0.771484 17.0228 5.24864 21.5 10.7715 21.5Z" stroke="#818799" stroke-width="1.5" stroke-miterlimit="10"/>
<path d="M10.7715 14.9879C16.2943 14.9879 20.7715 13.4264 20.7715 11.5003C20.7715 9.57415 16.2943 8.0127 10.7715 8.0127C5.24864 8.0127 0.771484 9.57415 0.771484 11.5003C0.771484 13.4264 5.24864 14.9879 10.7715 14.9879Z" stroke="#818799" stroke-width="1.5" stroke-miterlimit="10"/>
<path d="M10.7707 21.5C12.4595 21.5 13.8286 17.0228 13.8286 11.5C13.8286 5.97715 12.4595 1.5 10.7707 1.5C9.08194 1.5 7.71289 5.97715 7.71289 11.5C7.71289 17.0228 9.08194 21.5 10.7707 21.5Z" stroke="#818799" stroke-width="1.5" stroke-miterlimit="10"/>
</svg>
