<svg width="158" height="54" viewBox="0 0 158 54" fill="none" xmlns="http://www.w3.org/2000/svg">
<rect x="0.214844" width="157.547" height="54.0005" rx="27.0002" fill="#2B2D33"/>
<path d="M54.8133 17.8272L54.2067 19.8138H52.8867L55.1333 12.8008H56.7666L59.0465 19.8138H57.6732L57.0399 17.8272H54.8133ZM56.8199 16.8606L56.2666 15.134C56.1333 14.7074 56.0199 14.2274 55.9133 13.8207H55.8933C55.7866 14.2274 55.6866 14.714 55.5599 15.134L55.02 16.8606H56.8199Z" fill="white"/>
<path d="M60.96 14.7461L61.78 17.3193C61.9266 17.766 62.0266 18.1726 62.1266 18.5859H62.16C62.2533 18.1726 62.3666 17.7726 62.5066 17.3193L63.3199 14.7461H64.6599L62.7266 19.8126H61.4667L59.5801 14.7461H60.96Z" fill="white"/>
<path d="M69.767 18.5935C69.767 19.0534 69.787 19.5001 69.8536 19.8134H68.7003L68.607 19.2534H68.5737C68.2737 19.6468 67.7404 19.9267 67.0737 19.9267C66.0538 19.9267 65.4805 19.1868 65.4805 18.4201C65.4805 17.1535 66.6138 16.4935 68.487 16.5069V16.4202C68.487 16.0869 68.3537 15.5336 67.4537 15.5336C66.9537 15.5336 66.4338 15.6869 66.0938 15.9069L65.8471 15.0736C66.2204 14.8469 66.8804 14.627 67.6804 14.627C69.307 14.627 69.7736 15.6602 69.7736 16.7735V18.5935H69.767ZM68.5137 17.3335C67.6071 17.3202 66.7471 17.5135 66.7471 18.2801C66.7471 18.7801 67.0671 19.0068 67.4737 19.0068C67.9937 19.0068 68.3604 18.6735 68.4803 18.3068C68.5137 18.2135 68.5137 18.1201 68.5137 18.0268V17.3335Z" fill="white"/>
<path d="M72.2066 14.0136C71.78 14.0136 71.5 13.7002 71.5 13.3269C71.5 12.9336 71.7933 12.627 72.22 12.627C72.66 12.627 72.9266 12.9269 72.9399 13.3269C72.9399 13.7002 72.66 14.0136 72.22 14.0136H72.2066ZM71.5733 19.8133V14.7469H72.8533V19.8133H71.5733Z" fill="white"/>
<path d="M74.6934 12.4141H75.9733V19.8138H74.6934V12.4141Z" fill="white"/>
<path d="M81.758 18.5935C81.758 19.0534 81.778 19.5001 81.838 19.8134H80.6847L80.5914 19.2534H80.5581C80.2581 19.6468 79.7248 19.9267 79.0581 19.9267C78.0382 19.9267 77.4648 19.1868 77.4648 18.4201C77.4648 17.1535 78.5981 16.4935 80.4714 16.5069V16.4202C80.4714 16.0869 80.3381 15.5336 79.4448 15.5336C78.9448 15.5336 78.4248 15.6869 78.0848 15.9069L77.8382 15.0736C78.2115 14.8469 78.8715 14.627 79.6714 14.627C81.2914 14.627 81.7647 15.6602 81.7647 16.7735V18.5935H81.758ZM80.5114 17.3335C79.6048 17.3202 78.7448 17.5135 78.7448 18.2801C78.7448 18.7801 79.0648 19.0068 79.4714 19.0068C79.9914 19.0068 80.3581 18.6735 80.4781 18.3068C80.5114 18.2135 80.5114 18.1201 80.5114 18.0268V17.3335Z" fill="white"/>
<path d="M83.5646 12.4141H84.8445V15.4406H84.8645C85.1779 14.954 85.7312 14.6273 86.4911 14.6273C87.7311 14.6273 88.611 15.6606 88.6044 17.2005C88.6044 19.0205 87.4511 19.9271 86.3045 19.9271C85.6512 19.9271 85.0645 19.6738 84.7045 19.0538H84.6845L84.6245 19.8138H83.5312C83.5512 19.4671 83.5712 18.9071 83.5712 18.4005V12.4141H83.5646ZM84.8445 17.7205C84.8445 17.8272 84.8579 17.9272 84.8779 18.0205C85.0112 18.5405 85.4578 18.9138 86.0112 18.9138C86.8111 18.9138 87.3044 18.2805 87.3044 17.2472C87.3044 16.3539 86.8778 15.6273 86.0245 15.6273C85.5045 15.6273 85.0245 16.0006 84.8912 16.5606C84.8712 16.6539 84.8512 16.7672 84.8512 16.8939V17.7205H84.8445Z" fill="white"/>
<path d="M90.1133 12.4141H91.3932V19.8138H90.1133V12.4141Z" fill="white"/>
<path d="M94.1524 17.6394C94.1857 18.5527 94.899 18.9526 95.7123 18.9526C96.3057 18.9526 96.719 18.8593 97.119 18.726L97.3056 19.5993C96.8656 19.7859 96.2656 19.9193 95.539 19.9193C93.8924 19.9193 92.9258 18.9126 92.9258 17.3594C92.9258 15.9528 93.7791 14.6328 95.4057 14.6328C97.0523 14.6328 97.5923 15.9861 97.5923 17.0994C97.5923 17.3394 97.5723 17.526 97.5523 17.6394H94.1524ZM96.379 16.7394C96.3923 16.2727 96.179 15.4994 95.3257 15.4994C94.5324 15.4994 94.1991 16.2194 94.1524 16.7394H96.379Z" fill="white"/>
<path d="M103.899 19.9267C102.473 19.9267 101.359 18.9468 101.359 17.3135C101.359 15.6469 102.453 14.627 103.979 14.627C105.486 14.627 106.499 15.6869 106.499 17.2268C106.499 19.0868 105.186 19.9201 103.906 19.9201H103.899V19.9267ZM103.939 19.0001C104.666 19.0001 105.179 18.2935 105.179 17.2602C105.179 16.4669 104.826 15.5536 103.953 15.5536C103.046 15.5536 102.679 16.4402 102.679 17.2802C102.679 18.2601 103.166 19.0001 103.926 19.0001H103.939Z" fill="white"/>
<path d="M108.005 16.2527C108.005 15.6728 107.985 15.1795 107.965 14.7461H109.078L109.138 15.5061H109.171C109.398 15.1128 109.951 14.6328 110.798 14.6328C111.685 14.6328 112.598 15.2061 112.598 16.8061V19.8126H111.318V16.9527C111.318 16.2261 111.045 15.6728 110.351 15.6728C109.845 15.6728 109.491 16.0394 109.351 16.4194C109.311 16.5261 109.291 16.6794 109.291 16.8261V19.8126H108.012V16.2527H108.005Z" fill="white"/>
<path d="M118.492 13.4473V14.7472H119.712V15.7072H118.492V17.9338C118.492 18.5604 118.658 18.867 119.145 18.867C119.372 18.867 119.498 18.8537 119.645 18.8137L119.665 19.7803C119.478 19.8537 119.132 19.9137 118.738 19.9137C118.258 19.9137 117.878 19.7603 117.638 19.5004C117.358 19.207 117.232 18.7404 117.232 18.0737V15.7005H116.512V14.7405H117.232V13.7939L118.492 13.4473Z" fill="white"/>
<path d="M121.138 12.4141H122.417V15.4339H122.437C122.591 15.194 122.811 14.994 123.071 14.8606C123.331 14.714 123.631 14.634 123.957 14.634C124.817 14.634 125.724 15.2073 125.724 16.8272V19.8138H124.444V16.9605C124.444 16.2339 124.171 15.6673 123.464 15.6673C122.964 15.6673 122.611 16.0006 122.464 16.3872C122.424 16.5006 122.411 16.6406 122.411 16.7739V19.8138H121.131V12.4141H121.138Z" fill="white"/>
<path d="M128.449 17.6394C128.483 18.5527 129.196 18.9526 130.009 18.9526C130.603 18.9526 131.016 18.8593 131.416 18.726L131.602 19.5993C131.163 19.7859 130.563 19.9193 129.836 19.9193C128.189 19.9193 127.223 18.9126 127.223 17.3594C127.223 15.9528 128.076 14.6328 129.703 14.6328C131.349 14.6328 131.889 15.9861 131.889 17.0994C131.889 17.3394 131.869 17.526 131.849 17.6394H128.449ZM130.676 16.7394C130.689 16.2727 130.476 15.4994 129.623 15.4994C128.829 15.4994 128.496 16.2194 128.449 16.7394H130.676Z" fill="white"/>
<path d="M38.8927 25.9626C38.8593 22.6442 41.7326 21.0328 41.8659 20.9564C40.2393 18.6889 37.7127 18.3768 36.8261 18.3513C34.7062 18.1411 32.6529 19.5615 31.573 19.5615C30.473 19.5615 28.8064 18.3704 27.0198 18.4023C24.7132 18.4405 22.56 19.7143 21.3734 21.6888C18.9335 25.727 20.7534 31.6568 23.0933 34.9243C24.2666 36.523 25.6332 38.3064 27.4198 38.2427C29.1664 38.1726 29.8197 37.179 31.933 37.179C34.0262 37.179 34.6395 38.2427 36.4661 38.2045C38.346 38.1726 39.526 36.5994 40.6526 34.988C42.0059 33.1536 42.5459 31.3511 42.5725 31.2619C42.5325 31.2556 38.926 29.9435 38.8927 25.9626Z" fill="white"/>
<path d="M35.4463 16.2101C36.3862 15.0828 37.0329 13.5541 36.8529 12C35.4929 12.0573 33.7863 12.8981 32.8064 14C31.9397 14.9681 31.1598 16.5604 31.3598 18.0509C32.893 18.1655 34.4596 17.3184 35.4463 16.2101Z" fill="white"/>
<path d="M64.1845 37.9937H61.7446L60.4113 33.981H55.7715L54.4982 37.9937H52.125L56.7248 24.3379H59.5647L64.1845 37.9937ZM60.0114 32.2995L58.8047 28.7327C58.6781 28.3697 58.4381 27.5098 58.0848 26.1595H58.0448C57.9048 26.7391 57.6781 27.599 57.3648 28.7327L56.1782 32.2995H60.0114Z" fill="white"/>
<path d="M76.0161 32.9497C76.0161 34.6248 75.5428 35.9496 74.5962 36.9177C73.7495 37.784 72.6962 38.2107 71.4363 38.2107C70.0764 38.2107 69.1031 37.7458 68.5098 36.8158H68.4697V42.0005H66.1765V31.3892C66.1765 30.3382 66.1498 29.2554 66.0898 28.1472H68.1031L68.2298 29.7077H68.2764C69.0364 28.5293 70.1964 27.9434 71.7496 27.9434C72.9629 27.9434 73.9829 28.402 74.7895 29.3191C75.6095 30.2427 76.0161 31.4465 76.0161 32.9497ZM73.6829 33.0261C73.6829 32.0707 73.4562 31.2745 73.0029 30.6567C72.5096 30.007 71.843 29.6822 71.0097 29.6822C70.443 29.6822 69.9297 29.8605 69.4697 30.2172C69.0097 30.5803 68.7097 31.0452 68.5697 31.6248C68.4964 31.8923 68.4631 32.1153 68.4631 32.2936V33.9369C68.4631 34.6503 68.6897 35.2553 69.1497 35.7522C69.6097 36.249 70.2097 36.491 70.943 36.491C71.8029 36.491 72.4763 36.1789 72.9562 35.542C73.4429 34.905 73.6829 34.0707 73.6829 33.0261Z" fill="white"/>
<path d="M87.8688 32.9497C87.8688 34.6248 87.3955 35.9496 86.4489 36.9177C85.6022 37.784 84.549 38.2107 83.289 38.2107C81.9357 38.2107 80.9558 37.7458 80.3625 36.8158H80.3225V42.0005H78.0359V31.3892C78.0359 30.3382 78.0092 29.2554 77.9492 28.1472H79.9625L80.0891 29.7077H80.1358C80.8958 28.5293 82.0557 27.9434 83.609 27.9434C84.8223 27.9434 85.8356 28.402 86.6489 29.3191C87.4622 30.2427 87.8688 31.4465 87.8688 32.9497ZM85.5356 33.0261C85.5356 32.0707 85.3089 31.2745 84.8556 30.6567C84.3623 30.007 83.6957 29.6822 82.8624 29.6822C82.2957 29.6822 81.7824 29.8605 81.3224 30.2172C80.8624 30.5803 80.5624 31.0452 80.4225 31.6248C80.3491 31.8923 80.3158 32.1153 80.3158 32.2936V33.9369C80.3158 34.6503 80.5424 35.2553 81.0024 35.7522C81.4624 36.249 82.0557 36.491 82.7957 36.491C83.6557 36.491 84.329 36.1789 84.8089 35.542C85.2956 34.905 85.5356 34.0707 85.5356 33.0261Z" fill="white"/>
<path d="M101.123 34.1596C101.123 35.3188 100.703 36.2678 99.8497 36.9939C98.9164 37.7901 97.6231 38.1914 95.9565 38.1914C94.4166 38.1914 93.1833 37.9111 92.25 37.3442L92.7833 35.5226C93.7899 36.1022 94.8899 36.3952 96.0965 36.3952C96.9565 36.3952 97.6298 36.2105 98.1098 35.8411C98.5897 35.4653 98.8297 34.9685 98.8297 34.3507C98.8297 33.7965 98.6297 33.3316 98.2364 32.9494C97.8431 32.5672 97.1831 32.2169 96.2632 31.8921C93.7633 31.0004 92.51 29.6947 92.51 27.975C92.51 26.854 92.95 25.9304 93.8233 25.217C94.6966 24.4973 95.8632 24.1406 97.3231 24.1406C98.6231 24.1406 99.703 24.3572 100.563 24.7903L99.9897 26.5737C99.1831 26.1533 98.2698 25.9431 97.2565 25.9431C96.4498 25.9431 95.8232 26.1342 95.3699 26.51C94.9899 26.8476 94.7966 27.2616 94.7966 27.7457C94.7966 28.2871 95.0166 28.7329 95.4499 29.0832C95.8299 29.4081 96.5232 29.7584 97.5298 30.1405C98.7564 30.6119 99.663 31.166 100.243 31.8029C100.83 32.4271 101.123 33.2169 101.123 34.1596Z" fill="white"/>
<path d="M108.69 29.7849H106.17V34.5683C106.17 35.7848 106.617 36.3899 107.51 36.3899C107.917 36.3899 108.257 36.3581 108.523 36.288L108.583 37.9504C108.137 38.1096 107.537 38.1924 106.803 38.1924C105.897 38.1924 105.19 37.9313 104.683 37.4026C104.177 36.874 103.917 35.9887 103.917 34.7466V29.7849H102.41V28.1416H103.917V26.3391L106.163 25.6895V28.1416H108.683V29.7849H108.69Z" fill="white"/>
<path d="M120.075 32.9879C120.075 34.5038 119.621 35.7458 118.721 36.7139C117.775 37.7139 116.515 38.2107 114.948 38.2107C113.435 38.2107 112.228 37.733 111.335 36.7712C110.435 35.8158 109.988 34.6057 109.988 33.1471C109.988 31.6185 110.448 30.3701 111.375 29.4019C112.302 28.4274 113.548 27.9434 115.115 27.9434C116.628 27.9434 117.841 28.4211 118.761 29.3828C119.641 30.3127 120.075 31.5166 120.075 32.9879ZM117.701 33.0579C117.701 32.1535 117.495 31.3701 117.088 30.7204C116.608 29.937 115.921 29.5421 115.035 29.5421C114.115 29.5421 113.415 29.937 112.935 30.7204C112.522 31.3701 112.322 32.1599 112.322 33.0961C112.322 34.0006 112.522 34.784 112.935 35.4337C113.428 36.2171 114.121 36.612 115.015 36.612C115.888 36.612 116.575 36.2107 117.068 35.4146C117.488 34.7522 117.701 33.9687 117.701 33.0579Z" fill="white"/>
<path d="M127.523 30.0707C127.296 30.0325 127.056 30.0134 126.803 30.0134C125.996 30.0134 125.376 30.3064 124.936 30.886C124.556 31.4019 124.363 32.0452 124.363 32.8286V37.9942H122.076L122.096 31.249C122.096 30.1153 122.07 29.0835 122.01 28.1472H124.003L124.09 30.0325H124.15C124.39 29.3828 124.776 28.8605 125.296 28.472C125.803 28.1217 126.356 27.9434 126.95 27.9434C127.163 27.9434 127.35 27.9561 127.523 27.9816V30.0707Z" fill="white"/>
<path d="M137.762 32.6009C137.762 32.9958 137.736 33.3206 137.682 33.5945H130.816C130.843 34.569 131.176 35.3078 131.809 35.8237C132.389 36.2823 133.136 36.5116 134.056 36.5116C135.069 36.5116 135.996 36.3588 136.836 36.0467L137.196 37.5689C136.222 37.9766 135.069 38.1804 133.736 38.1804C132.143 38.1804 130.883 37.7282 129.976 36.8301C129.069 35.932 128.609 34.7282 128.609 33.2123C128.609 31.7283 129.036 30.4926 129.883 29.5054C130.769 28.4544 131.976 27.9258 133.483 27.9258C134.969 27.9258 136.096 28.4544 136.856 29.5054C137.456 30.3398 137.762 31.3716 137.762 32.6009ZM135.576 32.034C135.589 31.3843 135.442 30.8238 135.129 30.3525C134.736 29.7474 134.122 29.4417 133.303 29.4417C132.556 29.4417 131.949 29.741 131.483 30.3334C131.103 30.8047 130.876 31.3716 130.809 32.034H135.576Z" fill="white"/>
</svg>
