<svg width="22" height="23" viewBox="0 0 22 23" fill="none" xmlns="http://www.w3.org/2000/svg">
<g opacity="0.7">
<path d="M11.1348 21.5C16.6576 21.5 21.1348 17.0228 21.1348 11.5C21.1348 5.97715 16.6576 1.5 11.1348 1.5C5.61192 1.5 1.13477 5.97715 1.13477 11.5C1.13477 17.0228 5.61192 21.5 11.1348 21.5Z" stroke="white" stroke-width="1.5" stroke-miterlimit="10"/>
<path d="M11.1348 14.9879C16.6576 14.9879 21.1348 13.4264 21.1348 11.5003C21.1348 9.57415 16.6576 8.0127 11.1348 8.0127C5.61192 8.0127 1.13477 9.57415 1.13477 11.5003C1.13477 13.4264 5.61192 14.9879 11.1348 14.9879Z" stroke="white" stroke-width="1.5" stroke-miterlimit="10"/>
<path d="M11.134 21.5C12.8228 21.5 14.1919 17.0228 14.1919 11.5C14.1919 5.97715 12.8228 1.5 11.134 1.5C9.44522 1.5 8.07617 5.97715 8.07617 11.5C8.07617 17.0228 9.44522 21.5 11.134 21.5Z" stroke="white" stroke-width="1.5" stroke-miterlimit="10"/>
</g>
</svg>
