<svg width="23" height="22" viewBox="0 0 23 22" fill="none" xmlns="http://www.w3.org/2000/svg">
<path d="M11.3633 21C16.8861 21 21.3633 16.5228 21.3633 11C21.3633 5.47715 16.8861 1 11.3633 1C5.84043 1 1.36328 5.47715 1.36328 11C1.36328 16.5228 5.84043 21 11.3633 21Z" stroke="#818799" stroke-width="1.5" stroke-miterlimit="10"/>
<path d="M11.3633 14.4869C16.8861 14.4869 21.3633 12.9255 21.3633 10.9993C21.3633 9.07317 16.8861 7.51172 11.3633 7.51172C5.84043 7.51172 1.36328 9.07317 1.36328 10.9993C1.36328 12.9255 5.84043 14.4869 11.3633 14.4869Z" stroke="#818799" stroke-width="1.5" stroke-miterlimit="10"/>
<path d="M11.3625 21C13.0513 21 14.4204 16.5228 14.4204 11C14.4204 5.47715 13.0513 1 11.3625 1C9.67373 1 8.30469 5.47715 8.30469 11C8.30469 16.5228 9.67373 21 11.3625 21Z" stroke="#818799" stroke-width="1.5" stroke-miterlimit="10"/>
</svg>
