<svg width="21" height="27" viewBox="0 0 21 27" fill="none" xmlns="http://www.w3.org/2000/svg">
<path d="M18.8267 6.33466C16.8933 2.75697 14 1.04883 10.3067 1.04883C5.86667 1.04883 1 3.55052 1 11.4187C1 17.9016 10.3067 25.2587 10.3067 25.2587C10.3067 25.2587 19.6533 17.7537 19.6533 11.3111C19.6667 11.3111 19.8267 8.2042 18.8267 6.33466Z" stroke="#2B2D33" stroke-width="2" stroke-miterlimit="10" stroke-linecap="round" stroke-linejoin="round"/>
<path d="M10.3336 14.7668C8.12031 14.7668 6.32031 12.9511 6.32031 10.7184C6.32031 8.48567 8.12031 6.66992 10.3336 6.66992C12.547 6.66992 14.347 8.48567 14.347 10.7184C14.347 12.9511 12.547 14.7668 10.3336 14.7668Z" stroke="#2B2D33" stroke-width="2" stroke-miterlimit="10" stroke-linecap="round" stroke-linejoin="round"/>
</svg>
