<svg width="165" height="54" viewBox="0 0 165 54" fill="none" xmlns="http://www.w3.org/2000/svg">
<rect width="164.216" height="53.9997" rx="26.9999" fill="#2B2D33"/>
<path d="M82.3647 28.3712C79.8448 28.3712 77.7848 30.3516 77.7848 33.0745C77.7848 35.7837 79.8381 37.7778 82.3647 37.7778C84.8846 37.7778 86.9445 35.7837 86.9445 33.0745C86.9378 30.3516 84.8846 28.3712 82.3647 28.3712ZM82.3647 35.9281C80.9847 35.9281 79.7914 34.7523 79.7914 33.0745C79.7914 31.383 80.9847 30.2209 82.3647 30.2209C83.7446 30.2209 84.9379 31.3761 84.9379 33.0745C84.9379 34.7523 83.7446 35.9281 82.3647 35.9281ZM72.3784 28.3712C69.8585 28.3712 67.7986 30.3516 67.7986 33.0745C67.7986 35.7837 69.8518 37.7778 72.3784 37.7778C74.8983 37.7778 76.9582 35.7837 76.9582 33.0745C76.9582 30.3516 74.8983 28.3712 72.3784 28.3712ZM72.3784 35.9281C70.9985 35.9281 69.8052 34.7523 69.8052 33.0745C69.8052 31.383 70.9985 30.2209 72.3784 30.2209C73.7583 30.2209 74.9516 31.3761 74.9516 33.0745C74.9516 34.7523 73.7583 35.9281 72.3784 35.9281ZM60.4989 29.8152V31.8093H65.1254C64.9854 32.9301 64.6254 33.7484 64.0721 34.3191C63.3988 35.0205 62.3455 35.7837 60.4989 35.7837C57.6457 35.7837 55.4191 33.4115 55.4191 30.4753C55.4191 27.5392 57.6457 25.167 60.4989 25.167C62.0388 25.167 63.1588 25.7927 63.9854 26.5903L65.352 25.1807C64.1921 24.0393 62.6588 23.166 60.4989 23.166C56.5924 23.166 53.3125 26.4459 53.3125 30.4685C53.3125 34.4979 56.5924 37.7709 60.4989 37.7709C62.6055 37.7709 64.1987 37.0558 65.4387 35.7218C66.7186 34.4016 67.1119 32.5519 67.1119 31.0529C67.1119 30.5922 67.0786 30.159 67.0053 29.8084H60.4989V29.8152ZM109.077 31.3624C108.697 30.3103 107.537 28.3712 105.17 28.3712C102.824 28.3712 100.871 30.2759 100.871 33.0745C100.871 35.715 102.804 37.7778 105.397 37.7778C107.49 37.7778 108.697 36.4576 109.197 35.6943L107.644 34.6285C107.124 35.4124 106.417 35.9281 105.397 35.9281C104.377 35.9281 103.65 35.4468 103.184 34.5048L109.284 31.9056L109.077 31.3624ZM102.857 32.9301C102.804 31.1148 104.224 30.1865 105.244 30.1865C106.037 30.1865 106.71 30.5991 106.937 31.1836L102.857 32.9301ZM97.904 37.4959H99.9106V23.668H97.904V37.4959ZM94.6175 29.4233H94.5508C94.1042 28.8732 93.2376 28.3712 92.1509 28.3712C89.871 28.3712 87.7778 30.441 87.7778 33.0951C87.7778 35.7287 89.871 37.7778 92.1509 37.7778C93.2376 37.7778 94.1042 37.2758 94.5508 36.712H94.6175V37.3859C94.6175 39.1874 93.6842 40.1501 92.1843 40.1501C90.9576 40.1501 90.1977 39.2424 89.8844 38.4723L88.1444 39.2218C88.6444 40.4664 89.9777 41.9997 92.1843 41.9997C94.5308 41.9997 96.5174 40.5764 96.5174 37.0971V28.66H94.6175V29.4233ZM92.3243 35.9281C90.9443 35.9281 89.7844 34.7317 89.7844 33.0951C89.7844 31.438 90.9443 30.2278 92.3243 30.2278C93.6909 30.2278 94.7575 31.438 94.7575 33.0951C94.7575 34.7317 93.6909 35.9281 92.3243 35.9281ZM118.463 23.668H113.67V37.4959H115.67V32.2563H118.463C120.683 32.2563 122.863 30.5991 122.863 27.9656C122.863 25.332 120.683 23.668 118.463 23.668ZM118.517 30.3309H115.67V25.5933H118.517C120.01 25.5933 120.863 26.8723 120.863 27.9656C120.863 29.0314 120.01 30.3309 118.517 30.3309ZM130.883 28.3437C129.436 28.3437 127.936 29.0039 127.316 30.4616L129.089 31.2248C129.469 30.4616 130.176 30.2141 130.916 30.2141C131.949 30.2141 133.003 30.8535 133.023 31.995V32.1394C132.663 31.9262 131.883 31.603 130.936 31.603C129.023 31.603 127.076 32.6895 127.076 34.7179C127.076 36.5676 128.643 37.7572 130.403 37.7572C131.749 37.7572 132.489 37.1314 132.956 36.4026H133.023V37.4684H134.956V32.1669C134.949 29.719 133.176 28.3437 130.883 28.3437ZM130.643 35.9212C129.989 35.9212 129.076 35.5843 129.076 34.7454C129.076 33.6796 130.216 33.2671 131.196 33.2671C132.076 33.2671 132.489 33.4596 133.023 33.7278C132.863 35.0136 131.796 35.9212 130.643 35.9212ZM141.989 28.6463L139.696 34.6423H139.629L137.249 28.6463H135.096L138.662 37.0214L136.629 41.6834H138.716L144.216 28.6463H141.989ZM123.963 37.4959H125.963V23.668H123.963V37.4959Z" fill="white"/>
<path d="M20.4933 12.6665C20.18 13.0034 20 13.5329 20 14.2205V38.6583C20 39.3459 20.1867 39.8685 20.4933 40.2123L20.5733 40.2948L33.8461 26.6044V26.4325V26.2744L20.5733 12.584L20.4933 12.6665Z" fill="#5BC8F3"/>
<path d="M38.2722 31.1617L33.8457 26.596V26.4309V26.2728L38.2722 21.707L38.3722 21.7689L43.612 24.8425C45.1119 25.7227 45.1119 27.1529 43.612 28.0331L38.3722 31.1067L38.2722 31.1617Z" fill="url(#paint0_linear_2_251)"/>
<path d="M38.3715 31.1005L33.845 26.4316L20.4922 40.2045C20.9855 40.7409 21.7988 40.8096 22.7188 40.2733L38.3715 31.1005Z" fill="url(#paint1_linear_2_251)"/>
<path d="M38.3715 21.7693L22.7188 12.5965C21.7988 12.0602 20.9855 12.1221 20.4922 12.6653L33.845 26.4313L38.3715 21.7693Z" fill="url(#paint2_linear_2_251)"/>
<path d="M58.4643 13.4449C58.0643 13.0736 57.531 12.8398 56.9444 12.8398C55.6244 12.8398 54.6111 13.9606 54.6111 15.3427C54.6111 16.718 55.6244 17.8388 56.9444 17.8388C58.0776 17.8388 58.9043 17.158 58.9576 16.0854H57.1643V15.3221H59.9309C59.9309 17.605 58.7509 18.6845 56.9444 18.6845C55.1511 18.6845 53.7578 17.1924 53.7578 15.3496C53.7578 13.4999 55.1511 12.0078 56.9444 12.0078C57.7777 12.0078 58.531 12.3379 59.0776 12.8673L58.4643 13.4449Z" fill="white"/>
<path d="M64.8238 12.0762V12.8944H61.9373V14.971H64.4572V15.7962H61.9373V17.7627H64.9105V18.581H61.084V12.0762H64.8238Z" fill="white"/>
<path d="M70.3505 12.0762V12.9082H68.4373V18.581H67.5773V12.9082H65.6641V12.0762H70.3505Z" fill="white"/>
<path d="M74.4306 12.0762V18.581H73.584V12.0762H74.4306Z" fill="white"/>
<path d="M80.2373 12.0762V12.9082H78.324V18.581H77.464V12.9082H75.5508V12.0762H80.2373Z" fill="white"/>
<path d="M86.2432 12C88.0498 12 89.4497 13.4921 89.4497 15.3418C89.4497 17.1846 88.0498 18.6767 86.2432 18.6767C84.4499 18.6767 83.0566 17.1846 83.0566 15.3418C83.0566 13.4921 84.4499 12 86.2432 12ZM86.2432 17.8241C87.5698 17.8241 88.5897 16.717 88.5897 15.3418C88.5897 13.9597 87.5764 12.8458 86.2432 12.8458C84.9232 12.8458 83.9099 13.9597 83.9099 15.3418C83.9099 16.7239 84.9232 17.8241 86.2432 17.8241Z" fill="white"/>
<path d="M94.4824 18.581L91.6092 13.6783V18.581H90.7559V12.0762H91.5958L94.4424 16.9376V12.0762H95.2957V18.581H94.4824Z" fill="white"/>
<defs>
<linearGradient id="paint0_linear_2_251" x1="42.6404" y1="26.434" x2="16.7177" y2="26.434" gradientUnits="userSpaceOnUse">
<stop stop-color="#FFDF00"/>
<stop offset="0.4087" stop-color="#FBBC0E"/>
<stop offset="0.7754" stop-color="#F9A418"/>
<stop offset="1" stop-color="#F89B1C"/>
</linearGradient>
<linearGradient id="paint1_linear_2_251" x1="35.9124" y1="28.9704" x2="10.776" y2="53.3402" gradientUnits="userSpaceOnUse">
<stop stop-color="#EE4447"/>
<stop offset="1" stop-color="#C5166C"/>
</linearGradient>
<linearGradient id="paint2_linear_2_251" x1="11.4224" y1="-1.36277" x2="31.9456" y2="18.5345" gradientUnits="userSpaceOnUse">
<stop stop-color="#269E6F"/>
<stop offset="0.0509" stop-color="#2BA06F"/>
<stop offset="0.4663" stop-color="#53B26B"/>
<stop offset="0.7971" stop-color="#6BBD69"/>
<stop offset="1" stop-color="#74C168"/>
</linearGradient>
</defs>
</svg>
