<svg width="155" height="54" viewBox="0 0 155 54" fill="none" xmlns="http://www.w3.org/2000/svg">
<rect x="0.761719" width="154" height="54.0003" rx="27.0002" fill="#2B2D33"/>
<path d="M62.4961 26.3984C62.4961 25.7474 62.5898 25.125 62.7773 24.5312C62.9701 23.9375 63.2409 23.4036 63.5898 22.9297C63.944 22.4557 64.3607 22.0443 64.8398 21.6953C65.319 21.3411 65.8581 21.0703 66.457 20.8828C67.0612 20.6901 67.694 20.5938 68.3555 20.5938C69.4596 20.5938 70.457 20.849 71.3477 21.3594C72.2435 21.8698 72.9414 22.5677 73.4414 23.4531C73.9414 24.3385 74.1914 25.3203 74.1914 26.3984C74.1914 27.1693 74.0638 27.8906 73.8086 28.5625C73.5534 29.2344 73.1914 29.8255 72.7227 30.3359L74.0664 32H72.1602L71.5664 31.2812C70.6133 31.901 69.5378 32.2109 68.3398 32.2109C67.5117 32.2109 66.7357 32.0651 66.0117 31.7734C65.2878 31.4766 64.668 31.0729 64.1523 30.5625C63.6419 30.0469 63.2383 29.4297 62.9414 28.7109C62.6445 27.987 62.4961 27.2161 62.4961 26.3984ZM64.2773 26.3984C64.2773 27.6068 64.6602 28.612 65.4258 29.4141C66.1966 30.2109 67.1732 30.6094 68.3555 30.6094C69.1732 30.6094 69.8919 30.401 70.5117 29.9844L68.1445 27.0703H70.0664L71.6211 28.9766C72.1628 28.2526 72.4336 27.3932 72.4336 26.3984C72.4336 25.2005 72.0482 24.2031 71.2773 23.4062C70.5065 22.6094 69.5326 22.2109 68.3555 22.2109C67.1784 22.2109 66.2044 22.6094 65.4336 23.4062C64.6628 24.2031 64.2773 25.2005 64.2773 26.3984ZM76.3711 32V20.7969H80.3711C81.5065 20.7969 82.418 21.1172 83.1055 21.7578C83.793 22.3932 84.1367 23.2214 84.1367 24.2422C84.1367 25.013 83.9258 25.6875 83.5039 26.2656C83.0872 26.8438 82.556 27.25 81.9102 27.4844L84.457 32H82.5039L80.2148 27.7422H78.0977V32H76.3711ZM78.0977 26.2422H80.293C80.9076 26.2422 81.4049 26.0703 81.7852 25.7266C82.1654 25.3828 82.3555 24.888 82.3555 24.2422C82.3555 23.6745 82.168 23.2083 81.793 22.8438C81.4232 22.474 80.9023 22.2891 80.2305 22.2891H78.0977V26.2422ZM86.0977 27.9062V26.4141H90.3398V27.9062H86.0977ZM92.0742 26.3984C92.0742 25.5859 92.2201 24.8229 92.5117 24.1094C92.8034 23.3906 93.2044 22.7734 93.7148 22.2578C94.2253 21.7422 94.8398 21.3359 95.5586 21.0391C96.2826 20.7422 97.0586 20.5938 97.8867 20.5938C99.2253 20.5938 100.371 20.9583 101.324 21.6875C102.283 22.4167 102.928 23.3802 103.262 24.5781H101.402C101.158 23.8438 100.717 23.2682 100.082 22.8516C99.4466 22.4349 98.7148 22.2266 97.8867 22.2266C97.1367 22.2266 96.4544 22.4089 95.8398 22.7734C95.2253 23.1328 94.7435 23.6328 94.3945 24.2734C94.0456 24.9089 93.8711 25.6172 93.8711 26.3984C93.8711 27.6016 94.2539 28.599 95.0195 29.3906C95.7852 30.1823 96.7409 30.5781 97.8867 30.5781C98.7148 30.5781 99.444 30.3724 100.074 29.9609C100.704 29.5495 101.147 28.9766 101.402 28.2422H103.293C102.975 29.4401 102.329 30.401 101.355 31.125C100.387 31.849 99.2305 32.2109 97.8867 32.2109C97.0586 32.2109 96.2826 32.0651 95.5586 31.7734C94.8346 31.4766 94.2174 31.0729 93.707 30.5625C93.2018 30.0469 92.8034 29.4297 92.5117 28.7109C92.2201 27.9922 92.0742 27.2214 92.0742 26.3984ZM104.762 27.8203C104.762 26.9922 104.949 26.2422 105.324 25.5703C105.704 24.8984 106.233 24.3724 106.91 23.9922C107.587 23.612 108.348 23.4219 109.191 23.4219C110.035 23.4219 110.793 23.6146 111.465 24C112.142 24.3854 112.665 24.9141 113.035 25.5859C113.41 26.2526 113.598 26.9974 113.598 27.8203C113.598 28.6432 113.408 29.3906 113.027 30.0625C112.652 30.7292 112.126 31.2552 111.449 31.6406C110.772 32.0208 110.014 32.2109 109.176 32.2109C107.895 32.2109 106.837 31.7969 106.004 30.9688C105.176 30.1354 104.762 29.0859 104.762 27.8203ZM106.473 27.8203C106.473 28.6536 106.725 29.3411 107.23 29.8828C107.741 30.4193 108.389 30.6875 109.176 30.6875C109.967 30.6875 110.616 30.4167 111.121 29.875C111.632 29.3333 111.887 28.6484 111.887 27.8203C111.887 26.987 111.632 26.3021 111.121 25.7656C110.616 25.2292 109.967 24.9609 109.176 24.9609C108.384 24.9609 107.736 25.2318 107.23 25.7734C106.725 26.3099 106.473 26.9922 106.473 27.8203ZM116.152 31C115.402 30.1927 115.027 29.1406 115.027 27.8438C115.027 26.5469 115.4 25.487 116.145 24.6641C116.889 23.8359 117.845 23.4219 119.012 23.4219C119.387 23.4219 119.738 23.474 120.066 23.5781C120.395 23.6823 120.668 23.8177 120.887 23.9844C121.111 24.151 121.288 24.3047 121.418 24.4453C121.548 24.5807 121.658 24.7161 121.746 24.8516H121.863V20H123.543V32H121.895V30.8125H121.793C121.132 31.7448 120.23 32.2109 119.09 32.2109C117.887 32.2109 116.908 31.8073 116.152 31ZM116.738 27.8203C116.738 28.6849 116.975 29.3802 117.449 29.9062C117.928 30.4271 118.556 30.6875 119.332 30.6875C120.113 30.6875 120.738 30.4141 121.207 29.8672C121.676 29.3203 121.91 28.638 121.91 27.8203C121.91 26.9401 121.665 26.2448 121.176 25.7344C120.691 25.2188 120.072 24.9609 119.316 24.9609C118.556 24.9609 117.936 25.2292 117.457 25.7656C116.978 26.2969 116.738 26.9818 116.738 27.8203ZM125.371 27.8438C125.371 26.974 125.553 26.2031 125.918 25.5312C126.283 24.8542 126.78 24.3333 127.41 23.9688C128.046 23.6042 128.759 23.4219 129.551 23.4219C130.186 23.4219 130.764 23.5339 131.285 23.7578C131.806 23.9818 132.236 24.2891 132.574 24.6797C132.918 25.0703 133.181 25.526 133.363 26.0469C133.551 26.5677 133.645 27.1276 133.645 27.7266V28.3516H127.051C127.082 29.0859 127.329 29.6771 127.793 30.125C128.257 30.5729 128.868 30.7969 129.629 30.7969C130.16 30.7969 130.634 30.6771 131.051 30.4375C131.473 30.1979 131.767 29.875 131.934 29.4688H133.566C133.348 30.2917 132.882 30.9557 132.168 31.4609C131.46 31.9609 130.598 32.2109 129.582 32.2109C128.337 32.2109 127.324 31.8021 126.543 30.9844C125.762 30.1615 125.371 29.1146 125.371 27.8438ZM127.082 27.0547H131.98C131.928 26.3672 131.676 25.8255 131.223 25.4297C130.77 25.0286 130.212 24.8281 129.551 24.8281C128.905 24.8281 128.348 25.0365 127.879 25.4531C127.41 25.8698 127.145 26.4036 127.082 27.0547Z" fill="white"/>
<path d="M29.2958 12C26.6593 12.025 24.0104 12.0125 21.3615 12.0125C21.1865 12.0125 20.9991 12.0125 20.7617 12.0125C20.7617 12.225 20.7617 12.4 20.7617 12.575C20.7617 15.125 20.7617 17.6625 20.7617 20.2124" stroke="white" stroke-width="2" stroke-miterlimit="10" stroke-linecap="round" stroke-linejoin="round"/>
<path d="M20.7617 33.5254C20.7742 36.1504 20.7617 38.7879 20.7617 41.4128C20.7617 41.5878 20.7617 41.7628 20.7617 41.9878C20.9866 41.9878 21.1616 41.9878 21.3365 41.9878C23.9854 42.0003 26.6343 41.9878 29.2833 42.0003" stroke="white" stroke-width="2" stroke-miterlimit="10" stroke-linecap="round" stroke-linejoin="round"/>
<path d="M42.2891 42.0003C44.963 41.9878 47.6494 42.0003 50.3233 42.0003C50.4358 42.0003 50.5482 42.0003 50.7481 42.0003C50.7481 41.8128 50.7481 41.6378 50.7481 41.4628C50.7481 38.8129 50.7356 36.1754 50.7606 33.5254" stroke="white" stroke-width="2" stroke-miterlimit="10" stroke-linecap="round" stroke-linejoin="round"/>
<path d="M50.7482 20.4999C50.7357 17.875 50.7482 15.2375 50.7482 12.6125C50.7482 12.4375 50.7482 12.25 50.7482 12.0125C47.9619 12.0125 45.2505 12.025 42.5391 12" stroke="white" stroke-width="2" stroke-miterlimit="10" stroke-linecap="round" stroke-linejoin="round"/>
<path d="M30.207 21.4395C33.918 21.4395 37.604 21.4395 41.315 21.4395C41.315 25.1394 41.315 28.8269 41.315 32.5394C37.629 32.5394 33.9305 32.5394 30.207 32.5394C30.207 28.8644 30.207 25.1769 30.207 21.4395Z" stroke="white" stroke-width="2" stroke-miterlimit="10" stroke-linecap="round" stroke-linejoin="round"/>
</svg>
