<svg width="16" height="15" viewBox="0 0 16 15" fill="none" xmlns="http://www.w3.org/2000/svg">
<path d="M8.39121 0.827071L10.0472 4.18582C10.1643 4.42015 10.383 4.57637 10.633 4.61543L14.3354 5.15439C14.9759 5.24812 15.2337 6.03704 14.765 6.49008L12.0936 9.09116C11.9062 9.27081 11.8281 9.52858 11.8671 9.78634L12.4998 13.4732C12.6092 14.1137 11.9374 14.5979 11.3672 14.2933L8.05534 12.5515C7.82882 12.4343 7.55543 12.4343 7.32891 12.5515L4.01703 14.2933C3.44682 14.5979 2.77507 14.1058 2.88443 13.4732L3.51712 9.78634C3.56399 9.53639 3.47807 9.27081 3.2906 9.09116L0.611412 6.47446C0.15056 6.02142 0.400514 5.2325 1.04102 5.13877L4.75127 4.60762C5.00122 4.56856 5.21993 4.41234 5.33709 4.17801L6.99304 0.81926C7.28204 0.241243 8.11002 0.241243 8.39121 0.827071Z" fill="#FFC107"/>
</svg>
