<svg width="18" height="19" viewBox="0 0 18 19" fill="none" xmlns="http://www.w3.org/2000/svg">
<path d="M9.20235 5.26183C6.70518 5.26183 4.69094 7.27651 4.69094 9.77424C4.69094 12.272 6.70518 14.2867 9.20235 14.2867C11.6995 14.2867 13.7138 12.272 13.7138 9.77424C13.7138 7.27651 11.6995 5.26183 9.20235 5.26183ZM9.20235 12.7079C7.58861 12.7079 6.26935 11.3923 6.26935 9.77424C6.26935 8.15621 7.58469 6.84058 9.20235 6.84058C10.82 6.84058 12.1354 8.15621 12.1354 9.77424C12.1354 11.3923 10.8161 12.7079 9.20235 12.7079ZM14.9506 5.07724C14.9506 5.66241 14.4794 6.12975 13.8983 6.12975C13.3133 6.12975 12.846 5.65848 12.846 5.07724C12.846 4.49601 13.3172 4.02474 13.8983 4.02474C14.4794 4.02474 14.9506 4.49601 14.9506 5.07724ZM17.9386 6.14546C17.8718 4.73557 17.5498 3.48671 16.5172 2.45776C15.4885 1.42882 14.2399 1.10679 12.8303 1.0361C11.3776 0.953625 7.02321 0.953625 5.57045 1.0361C4.16481 1.10286 2.91622 1.4249 1.88358 2.45384C0.850943 3.48278 0.532906 4.73165 0.462231 6.14153C0.379777 7.59462 0.379777 11.9499 0.462231 13.403C0.52898 14.8129 0.850943 16.0618 1.88358 17.0907C2.91622 18.1197 4.16088 18.4417 5.57045 18.5124C7.02321 18.5949 11.3776 18.5949 12.8303 18.5124C14.2399 18.4456 15.4885 18.1236 16.5172 17.0907C17.5459 16.0618 17.8679 14.8129 17.9386 13.403C18.021 11.9499 18.021 7.59854 17.9386 6.14546ZM16.0617 14.9621C15.7555 15.7319 15.1626 16.3249 14.3891 16.6352C13.2308 17.0946 10.4824 16.9886 9.20235 16.9886C7.92235 16.9886 5.16996 17.0907 4.01561 16.6352C3.24603 16.3288 2.65315 15.7358 2.34297 14.9621C1.88358 13.8036 1.98959 11.0545 1.98959 9.77424C1.98959 8.49396 1.88751 5.74095 2.34297 4.58634C2.64922 3.8166 3.24211 3.22358 4.01561 2.91333C5.17389 2.45384 7.92235 2.55987 9.20235 2.55987C10.4824 2.55987 13.2347 2.45776 14.3891 2.91333C15.1587 3.21965 15.7516 3.81267 16.0617 4.58634C16.5211 5.74488 16.4151 8.49396 16.4151 9.77424C16.4151 11.0545 16.5211 13.8075 16.0617 14.9621Z" fill="#818799"/>
</svg>
