<svg width="25" height="19" viewBox="0 0 25 19" fill="none" xmlns="http://www.w3.org/2000/svg">
<path d="M24.4776 3.59056C24.1901 2.48197 23.3429 1.60887 22.2673 1.31258C20.3177 0.77417 12.5 0.77417 12.5 0.77417C12.5 0.77417 4.68232 0.77417 2.73266 1.31258C1.65706 1.60892 0.80992 2.48197 0.522399 3.59056C0 5.59995 0 9.79236 0 9.79236C0 9.79236 0 13.9848 0.522399 15.9942C0.80992 17.1027 1.65706 17.9395 2.73266 18.2358C4.68232 18.7742 12.5 18.7742 12.5 18.7742C12.5 18.7742 20.3177 18.7742 22.2673 18.2358C23.3429 17.9395 24.1901 17.1027 24.4776 15.9942C25 13.9848 25 9.79236 25 9.79236C25 9.79236 25 5.59995 24.4776 3.59056ZM9.94316 13.5987V5.98597L16.4772 9.79245L9.94316 13.5987Z" fill="#818799"/>
</svg>
