<svg width="18" height="18" viewBox="0 0 18 18" fill="none" xmlns="http://www.w3.org/2000/svg">
<path d="M9.20235 4.68748C6.70518 4.68748 4.69094 6.70217 4.69094 9.1999C4.69094 11.6976 6.70518 13.7123 9.20235 13.7123C11.6995 13.7123 13.7138 11.6976 13.7138 9.1999C13.7138 6.70217 11.6995 4.68748 9.20235 4.68748ZM9.20235 12.1336C7.58861 12.1336 6.26935 10.8179 6.26935 9.1999C6.26935 7.58187 7.58469 6.26624 9.20235 6.26624C10.82 6.26624 12.1354 7.58187 12.1354 9.1999C12.1354 10.8179 10.8161 12.1336 9.20235 12.1336ZM14.9506 4.5029C14.9506 5.08806 14.4794 5.55541 13.8983 5.55541C13.3133 5.55541 12.846 5.08414 12.846 4.5029C12.846 3.92167 13.3172 3.4504 13.8983 3.4504C14.4794 3.4504 14.9506 3.92167 14.9506 4.5029ZM17.9386 5.57112C17.8718 4.16123 17.5498 2.91236 16.5172 1.88342C15.4885 0.854482 14.2399 0.532447 12.8303 0.461757C11.3776 0.379284 7.02321 0.379284 5.57045 0.461757C4.16481 0.52852 2.91622 0.850555 1.88358 1.8795C0.850943 2.90844 0.532906 4.1573 0.462231 5.56719C0.379777 7.02028 0.379777 11.3756 0.462231 12.8287C0.52898 14.2386 0.850943 15.4874 1.88358 16.5164C2.91622 17.5453 4.16088 17.8674 5.57045 17.938C7.02321 18.0205 11.3776 18.0205 12.8303 17.938C14.2399 17.8713 15.4885 17.5492 16.5172 16.5164C17.5459 15.4874 17.8679 14.2386 17.9386 12.8287C18.021 11.3756 18.021 7.0242 17.9386 5.57112ZM16.0617 14.3878C15.7555 15.1575 15.1626 15.7506 14.3891 16.0608C13.2308 16.5203 10.4824 16.4143 9.20235 16.4143C7.92235 16.4143 5.16996 16.5164 4.01561 16.0608C3.24603 15.7545 2.65315 15.1615 2.34297 14.3878C1.88358 13.2293 1.98959 10.4802 1.98959 9.1999C1.98959 7.91962 1.88751 5.16661 2.34297 4.012C2.64922 3.24225 3.24211 2.64924 4.01561 2.33899C5.17389 1.8795 7.92235 1.98553 9.20235 1.98553C10.4824 1.98553 13.2347 1.88342 14.3891 2.33899C15.1587 2.64531 15.7516 3.23833 16.0617 4.012C16.5211 5.17054 16.4151 7.91962 16.4151 9.1999C16.4151 10.4802 16.5211 13.2332 16.0617 14.3878Z" fill="#2B2D33"/>
</svg>
