<svg width="18" height="16" viewBox="0 0 18 16" fill="none" xmlns="http://www.w3.org/2000/svg">
<path d="M15.9901 4.28911C16.0012 4.45966 16.0012 4.63024 16.0012 4.80079C16.0012 10.0028 12.3718 15.9967 5.7383 15.9967C3.69464 15.9967 1.79618 15.351 0.199219 14.2302C0.489584 14.2668 0.768744 14.279 1.07028 14.279C2.75655 14.279 4.30885 13.6577 5.54845 12.5978C3.96266 12.5612 2.63372 11.4282 2.17585 9.86881C2.39922 9.90533 2.62255 9.92971 2.85709 9.92971C3.18094 9.92971 3.50482 9.88096 3.80632 9.79572C2.15354 9.43021 0.913909 7.84647 0.913909 5.93378V5.88507C1.39409 6.17746 1.95252 6.3602 2.54435 6.38453C1.57278 5.67792 0.936253 4.47185 0.936253 3.10737C0.936253 2.37642 1.1149 1.70637 1.42761 1.12159C3.20325 3.50941 5.8723 5.06877 8.86516 5.23936C8.80933 4.94697 8.77582 4.64243 8.77582 4.33786C8.77582 2.16931 10.3839 0.402832 12.3829 0.402832C13.4215 0.402832 14.3596 0.877957 15.0185 1.64547C15.8337 1.47492 16.6154 1.14597 17.3078 0.69522C17.0397 1.60894 16.4702 2.37646 15.722 2.86373C16.4479 2.77849 17.1515 2.55916 17.7992 2.25462C17.3079 3.03428 16.6936 3.72867 15.9901 4.28911Z" fill="#2B2D33"/>
</svg>
