<svg width="142" height="142" viewBox="0 0 142 142" fill="none" xmlns="http://www.w3.org/2000/svg">
<path d="M70.8235 134.477C35.8417 134.477 7.30078 105.995 7.30078 70.9539C7.30078 35.913 35.8417 7.43115 70.8235 7.43115C105.805 7.43115 134.346 35.913 134.346 70.9539C134.346 105.995 105.864 134.477 70.8235 134.477ZM70.8235 16.2948C40.6871 16.2948 16.1644 40.8175 16.1644 70.9539C16.1644 101.09 40.6871 125.613 70.8235 125.613C100.96 125.613 125.483 101.09 125.483 70.9539C125.483 40.8175 100.96 16.2948 70.8235 16.2948Z" fill="white"/>
<path d="M62.4911 100.44C59.8911 100.44 57.4092 99.7902 55.2229 98.5493C50.1411 95.5947 47.3047 89.8038 47.3047 82.2402V62.4447C47.3047 54.8811 50.082 49.0902 55.1638 46.1357C60.2456 43.1811 66.6865 43.6538 73.2456 47.4357L90.382 57.3038C96.941 61.0857 100.546 66.4038 100.546 72.3129C100.546 78.1629 96.941 83.5402 90.382 87.322L73.2456 97.1902C69.582 99.3766 65.8592 100.44 62.4911 100.44ZM62.4911 53.0493C61.4274 53.0493 60.4229 53.2857 59.6547 53.7584C57.4092 55.0584 56.1683 58.1902 56.1683 62.4447V82.2402C56.1683 86.4356 57.4092 89.6266 59.6547 90.8675C61.8411 92.1675 65.2092 91.6357 68.8729 89.5675L86.0092 79.6993C89.6729 77.572 91.7411 74.9129 91.7411 72.372C91.7411 69.8311 89.6138 67.172 86.0092 65.0447L68.8729 55.1766C66.5092 53.7584 64.3229 53.0493 62.4911 53.0493Z" fill="white"/>
</svg>
