<svg width="20" height="19" viewBox="0 0 20 19" fill="none" xmlns="http://www.w3.org/2000/svg">
<path d="M17.8286 0.574219H1.36714C0.612857 0.574219 0 1.16975 0 1.90083V17.6476C0 18.3787 0.612857 18.9742 1.36714 18.9742H17.8286C18.5829 18.9742 19.2 18.3787 19.2 17.6476V1.90083C19.2 1.16975 18.5829 0.574219 17.8286 0.574219ZM5.80286 16.3456H2.95714V7.56458H5.80714V16.3456H5.80286ZM4.38 6.36529C3.46714 6.36529 2.73 5.65475 2.73 4.78404C2.73 3.91333 3.46714 3.20279 4.38 3.20279C5.28857 3.20279 6.03 3.91333 6.03 4.78404C6.03 5.65886 5.29286 6.36529 4.38 6.36529ZM16.47 16.3456H13.6243V12.0742C13.6243 11.0556 13.6029 9.74547 12.1457 9.74547C10.6629 9.74547 10.4357 10.8544 10.4357 12.0003V16.3456H7.59V7.56458H10.32V8.76386H10.3586C10.74 8.07386 11.67 7.3469 13.0543 7.3469C15.9343 7.3469 16.47 9.16636 16.47 11.5321V16.3456Z" fill="#818799"/>
</svg>
