<svg width="18" height="17" viewBox="0 0 18 17" fill="none" xmlns="http://www.w3.org/2000/svg">
<path d="M15.9901 4.86357C16.0012 5.03412 16.0012 5.20471 16.0012 5.37526C16.0012 10.5773 12.3718 16.5712 5.7383 16.5712C3.69464 16.5712 1.79618 15.9255 0.199219 14.8047C0.489584 14.8412 0.768744 14.8534 1.07028 14.8534C2.75655 14.8534 4.30885 14.2321 5.54845 13.1722C3.96266 13.1357 2.63372 12.0027 2.17585 10.4433C2.39922 10.4798 2.62255 10.5042 2.85709 10.5042C3.18094 10.5042 3.50482 10.4554 3.80632 10.3702C2.15354 10.0047 0.913909 8.42093 0.913909 6.50825V6.45953C1.39409 6.75192 1.95252 6.93466 2.54435 6.959C1.57278 6.25238 0.936253 5.04631 0.936253 3.68183C0.936253 2.95088 1.1149 2.28083 1.42761 1.69606C3.20325 4.08387 5.8723 5.64323 8.86516 5.81382C8.80933 5.52143 8.77582 5.2169 8.77582 4.91232C8.77582 2.74377 10.3839 0.977295 12.3829 0.977295C13.4215 0.977295 14.3596 1.45242 15.0185 2.21993C15.8337 2.04938 16.6154 1.72043 17.3078 1.26968C17.0397 2.18341 16.4702 2.95092 15.722 3.4382C16.4479 3.35296 17.1515 3.13362 17.7992 2.82908C17.3079 3.60875 16.6936 4.30313 15.9901 4.86357Z" fill="#818799"/>
</svg>
